<?xml version="1.0" encoding="UTF-8" standalone="no"?>
<!-- Generator: Adobe Illustrator 18.1.1, SVG Export Plug-In . SVG Version: 6.00 Build 0)  -->

<svg
   xmlns:i="http://ns.adobe.com/AdobeIllustrator/10.0/"
   xmlns:dc="http://purl.org/dc/elements/1.1/"
   xmlns:cc="http://creativecommons.org/ns#"
   xmlns:rdf="http://www.w3.org/1999/02/22-rdf-syntax-ns#"
   xmlns:svg="http://www.w3.org/2000/svg"
   xmlns="http://www.w3.org/2000/svg"
   xmlns:sodipodi="http://sodipodi.sourceforge.net/DTD/sodipodi-0.dtd"
   xmlns:inkscape="http://www.inkscape.org/namespaces/inkscape"
   version="1.1"
   x="0px"
   y="0px"
   viewBox="0 0 1024 1024"
   enable-background="new 0 0 263 175"
   xml:space="preserve"
   id="svg3336"
   inkscape:version="0.91 r13725"
   sodipodi:docname="otp.svg"
   width="1024"
   height="1024"><metadata
     id="metadata3386"><rdf:RDF><cc:Work
         rdf:about=""><dc:format>image/svg+xml</dc:format><dc:type
           rdf:resource="http://purl.org/dc/dcmitype/StillImage" /><dc:title></dc:title></cc:Work></rdf:RDF></metadata><defs
     id="defs3384" /><sodipodi:namedview
     pagecolor="#ffffff"
     bordercolor="#666666"
     borderopacity="1"
     objecttolerance="10"
     gridtolerance="10"
     guidetolerance="10"
     inkscape:pageopacity="0"
     inkscape:pageshadow="2"
     inkscape:window-width="1920"
     inkscape:window-height="1012"
     id="namedview3382"
     showgrid="false"
     inkscape:zoom="0.5"
     inkscape:cx="595.99373"
     inkscape:cy="265.67282"
     inkscape:window-x="0"
     inkscape:window-y="32"
     inkscape:window-maximized="1"
     inkscape:current-layer="mail_Kopie"
     fit-margin-top="0"
     fit-margin-left="0"
     fit-margin-right="0"
     fit-margin-bottom="0" /><g
     id="mail_Kopie"
     transform="translate(-44,849)"><g
       id="g3648"
       transform="matrix(5.8514286,0,0,5.8514286,-213.46286,-849)"><g
         id="Ebene_5_Kopie"><circle
           r="87.5"
           style="fill:#0064c8"
           id="circle3340"
           cy="87.5"
           cx="131.5" /><text
           sodipodi:linespacing="125%"
           id="text3483"
           y="18.5"
           x="122.40332"
           style="font-style:normal;font-weight:normal;font-size:40px;line-height:125%;font-family:sans-serif;letter-spacing:0px;word-spacing:0px;fill:#000000;fill-opacity:1;stroke:none;stroke-width:1px;stroke-linecap:butt;stroke-linejoin:miter;stroke-opacity:1"
           xml:space="preserve"><tspan
             style="font-style:normal;font-variant:normal;font-weight:normal;font-stretch:normal;font-size:15px;line-height:125%;font-family:'Arial Rounded MT Bold';-inkscape-font-specification:'Arial Rounded MT Bold, Normal';text-align:start;writing-mode:lr-tb;text-anchor:start;fill:#ffffff;fill-opacity:1"
             y="18.5"
             x="122.40332"
             id="tspan3485"
             sodipodi:role="line">12</tspan></text>
<text
           sodipodi:linespacing="125%"
           id="text3483-6"
           y="92.802734"
           x="202.65332"
           style="font-style:normal;font-weight:normal;font-size:40px;line-height:125%;font-family:sans-serif;letter-spacing:0px;word-spacing:0px;fill:#000000;fill-opacity:1;stroke:none;stroke-width:1px;stroke-linecap:butt;stroke-linejoin:miter;stroke-opacity:1"
           xml:space="preserve"><tspan
             style="font-style:normal;font-variant:normal;font-weight:normal;font-stretch:normal;font-size:15px;line-height:125%;font-family:'Arial Rounded MT Bold';-inkscape-font-specification:'Arial Rounded MT Bold, Normal';text-align:start;writing-mode:lr-tb;text-anchor:start;fill:#ffffff;fill-opacity:1"
             y="92.802734"
             x="202.65332"
             id="tspan3485-6"
             sodipodi:role="line">3</tspan></text>
<text
           sodipodi:linespacing="125%"
           id="text3483-6-1"
           y="168.56006"
           x="126.97729"
           style="font-style:normal;font-weight:normal;font-size:40px;line-height:125%;font-family:sans-serif;letter-spacing:0px;word-spacing:0px;fill:#000000;fill-opacity:1;stroke:none;stroke-width:1px;stroke-linecap:butt;stroke-linejoin:miter;stroke-opacity:1"
           xml:space="preserve"><tspan
             style="font-style:normal;font-variant:normal;font-weight:normal;font-stretch:normal;font-size:15px;line-height:125%;font-family:'Arial Rounded MT Bold';-inkscape-font-specification:'Arial Rounded MT Bold, Normal';text-align:start;writing-mode:lr-tb;text-anchor:start;fill:#ffffff;fill-opacity:1"
             y="168.56006"
             x="126.97729"
             id="tspan3485-6-5"
             sodipodi:role="line">6</tspan></text>
<text
           sodipodi:linespacing="125%"
           id="text3483-6-1-4"
           y="92.817383"
           x="49.90332"
           style="font-style:normal;font-weight:normal;font-size:40px;line-height:125%;font-family:sans-serif;letter-spacing:0px;word-spacing:0px;fill:#000000;fill-opacity:1;stroke:none;stroke-width:1px;stroke-linecap:butt;stroke-linejoin:miter;stroke-opacity:1"
           xml:space="preserve"><tspan
             style="font-style:normal;font-variant:normal;font-weight:normal;font-stretch:normal;font-size:15px;line-height:125%;font-family:'Arial Rounded MT Bold';-inkscape-font-specification:'Arial Rounded MT Bold, Normal';text-align:start;writing-mode:lr-tb;text-anchor:start;fill:#ffffff;fill-opacity:1"
             y="92.817383"
             x="49.90332"
             id="tspan3485-6-5-7"
             sodipodi:role="line">9</tspan></text>
<g
           transform="matrix(0.37235639,0,0,0.37235639,50.536828,6.5366418)"
           id="Ebene_1"
           i:rgbTrio="#4F008000FFFF"
           i:layer="yes"
           i:dimmedPercent="50"><g
             style="fill:#ffffff;fill-opacity:1"
             id="g4364"
             i:knockout="Off"><g
               style="fill:#ffffff;fill-opacity:1"
               id="g4366"><path
                 id="path4368"
                 i:knockout="Off"
                 d="m 126.245,377.121 -15.109,24.47"
                 inkscape:connector-curvature="0"
                 style="fill:#ffffff;fill-opacity:1" /><path
                 style="fill:#ffffff;fill-opacity:1"
                 id="path4370"
                 i:knockout="Off"
                 d="m 121.927,374.598 c -5.036,8.156 -10.073,16.313 -15.109,24.47 -3.398,5.503 5.254,10.521 8.635,5.047 5.036,-8.156 10.073,-16.313 15.109,-24.47 3.398,-5.503 -5.254,-10.522 -8.635,-5.047 z"
                 inkscape:connector-curvature="0" /></g></g><g
             style="fill:#ffffff;fill-opacity:1"
             id="g4372"
             i:knockout="Off"><g
               style="fill:#ffffff;fill-opacity:1"
               id="g4374"><path
                 id="path4376"
                 i:knockout="Off"
                 d="m 58.029,308.986 -24.75,14.748"
                 inkscape:connector-curvature="0"
                 style="fill:#ffffff;fill-opacity:1" /><path
                 style="fill:#ffffff;fill-opacity:1"
                 id="path4378"
                 i:knockout="Off"
                 d="m 55.506,304.669 c -8.25,4.916 -16.5,9.832 -24.75,14.748 -5.533,3.297 -0.506,11.944 5.047,8.635 8.25,-4.916 16.5,-9.832 24.75,-14.748 5.532,-3.297 0.506,-11.945 -5.047,-8.635 z"
                 inkscape:connector-curvature="0" /></g></g><g
             style="fill:#ffffff;fill-opacity:1"
             id="g4388"
             i:knockout="Off"><g
               style="fill:#ffffff;fill-opacity:1"
               id="g4390"><path
                 id="path4392"
                 i:knockout="Off"
                 d="M 58.39,125.088 33.28,111.136"
                 inkscape:connector-curvature="0"
                 style="fill:#ffffff;fill-opacity:1" /><path
                 style="fill:#ffffff;fill-opacity:1"
                 id="path4394"
                 i:knockout="Off"
                 d="m 60.913,120.771 c -8.37,-4.651 -16.74,-9.301 -25.11,-13.952 -5.642,-3.135 -10.684,5.503 -5.047,8.635 8.37,4.651 16.74,9.301 25.11,13.952 5.642,3.135 10.684,-5.503 5.047,-8.635 z"
                 inkscape:connector-curvature="0" /></g></g><g
             style="fill:#ffffff;fill-opacity:1"
             id="g4398"><path
               style="fill:#ffffff;fill-opacity:1"
               inkscape:connector-curvature="0"
               d="M 124.807,57.492 111.136,33.28"
               i:knockout="Off"
               id="path4400" /><path
               style="fill:#ffffff;fill-opacity:1"
               inkscape:connector-curvature="0"
               d="m 129.125,54.968 c -4.557,-8.071 -9.114,-16.141 -13.671,-24.211 -3.17,-5.614 -11.81,-0.576 -8.635,5.047 4.557,8.071 9.114,16.141 13.671,24.211 3.17,5.614 11.809,0.576 8.635,-5.047 z"
               i:knockout="Off"
               id="path4402" /></g><g
             style="fill:#ffffff;fill-opacity:1"
             id="g4412"
             i:knockout="Off"><g
               style="fill:#ffffff;fill-opacity:1"
               id="g4414"><path
                 id="path4416"
                 i:knockout="Off"
                 d="M 310.24,58.288 323.734,33.28"
                 inkscape:connector-curvature="0"
                 style="fill:#ffffff;fill-opacity:1" /><path
                 style="fill:#ffffff;fill-opacity:1"
                 id="path4418"
                 i:knockout="Off"
                 d="m 314.558,60.812 c 4.498,-8.336 8.996,-16.672 13.494,-25.008 3.062,-5.674 -5.572,-10.723 -8.635,-5.047 -4.498,8.336 -8.996,16.672 -13.494,25.008 -3.062,5.674 5.572,10.723 8.635,5.047 z"
                 inkscape:connector-curvature="0" /></g></g><g
             style="fill:#ffffff;fill-opacity:1"
             id="g4420"
             i:knockout="Off"><g
               style="fill:#ffffff;fill-opacity:1"
               id="g4422"><path
                 id="path4424"
                 i:knockout="Off"
                 d="m 376.84,125.885 24.75,-14.749"
                 inkscape:connector-curvature="0"
                 style="fill:#ffffff;fill-opacity:1" /><path
                 style="fill:#ffffff;fill-opacity:1"
                 id="path4426"
                 i:knockout="Off"
                 d="m 379.363,130.203 c 8.25,-4.917 16.5,-9.833 24.75,-14.749 5.532,-3.297 0.507,-11.944 -5.047,-8.635 -8.25,4.917 -16.5,9.833 -24.75,14.749 -5.532,3.297 -0.506,11.944 5.047,8.635 z"
                 inkscape:connector-curvature="0" /></g></g><g
             style="fill:#ffffff;fill-opacity:1"
             id="g4436"
             i:knockout="Off"><g
               style="fill:#ffffff;fill-opacity:1"
               id="g4438"><path
                 id="path4440"
                 i:knockout="Off"
                 d="m 377.2,309.805 24.39,13.93"
                 inkscape:connector-curvature="0"
                 style="fill:#ffffff;fill-opacity:1" /><path
                 style="fill:#ffffff;fill-opacity:1"
                 id="path4442"
                 i:knockout="Off"
                 d="m 374.677,314.122 c 8.13,4.644 16.26,9.286 24.39,13.93 5.608,3.203 10.645,-5.438 5.047,-8.635 -8.13,-4.644 -16.26,-9.286 -24.39,-13.93 -5.609,-3.203 -10.645,5.438 -5.047,8.635 z"
                 inkscape:connector-curvature="0" /></g></g><g
             style="fill:#ffffff;fill-opacity:1"
             id="g4444"
             i:knockout="Off"><g
               style="fill:#ffffff;fill-opacity:1"
               id="g4446"><path
                 id="path4448"
                 i:knockout="Off"
                 d="m 309.523,376.303 14.211,25.288"
                 inkscape:connector-curvature="0"
                 style="fill:#ffffff;fill-opacity:1" /><path
                 style="fill:#ffffff;fill-opacity:1"
                 id="path4450"
                 i:knockout="Off"
                 d="m 305.206,378.826 c 4.737,8.43 9.474,16.859 14.211,25.288 3.159,5.621 11.798,0.581 8.635,-5.047 -4.737,-8.43 -9.474,-16.858 -14.211,-25.288 -3.159,-5.621 -11.798,-0.581 -8.635,5.047 z"
                 inkscape:connector-curvature="0" /></g></g></g></g><g
         id="g3625"><g
           id="g4275"><path
             style="fill:#37474f"
             inkscape:connector-curvature="0"
             id="path3401"
             d="m 131.5,45.278542 c -23.2218,0 -42.221458,18.999655 -42.221458,42.221456 0,23.221802 18.999658,42.221462 42.221458,42.221462 23.2218,0 42.22146,-18.99966 42.22146,-42.221462 0,-23.221801 -18.99966,-42.221456 -42.22146,-42.221456 z m 0,71.776478 c -16.46637,0 -29.55502,-13.08865 -29.55502,-29.555022 0,-16.466368 13.08865,-29.555019 29.55502,-29.555019 16.46637,0 29.55502,13.088651 29.55502,29.555019 0,16.466372 -13.08865,29.555022 -29.55502,29.555022 z" /><g
             style="fill:#b0bec5"
             transform="matrix(4.2221456,0,0,4.2221456,9.0577772,-13.831494)"
             id="g3403"><path
               inkscape:connector-curvature="0"
               id="path3405"
               d="m 35.3,19.1 0.4,-0.4 c 0.4,-0.4 0.4,-1 0,-1.4 -0.4,-0.4 -1,-0.4 -1.4,0 l -0.4,0.4 c 0.5,0.4 1,0.9 1.4,1.4 z" /><path
               inkscape:connector-curvature="0"
               id="path3407"
               d="m 22.7,19.1 c 0.4,-0.5 0.9,-1 1.4,-1.4 l -0.4,-0.4 c -0.4,-0.4 -1,-0.4 -1.4,0 -0.4,0.4 -0.4,1 0,1.4 l 0.4,0.4 z" /><path
               inkscape:connector-curvature="0"
               id="path3409"
               d="m 21,24 c 0,-0.3 0,-0.7 0.1,-1 l -0.6,0 c -0.6,0 -1,0.4 -1,1 0,0.6 0.4,1 1,1 l 0.6,0 C 21,24.7 21,24.3 21,24 Z" /><path
               inkscape:connector-curvature="0"
               id="path3411"
               d="m 29,16 c 0.3,0 0.7,0 1,0.1 l 0,-0.6 c 0,-0.6 -0.4,-1 -1,-1 -0.6,0 -1,0.4 -1,1 l 0,0.6 C 28.3,16 28.7,16 29,16 Z" /><path
               inkscape:connector-curvature="0"
               id="path3413"
               d="m 35.3,28.9 c -0.4,0.5 -0.9,1 -1.4,1.4 l 0.4,0.4 c 0.2,0.2 0.5,0.3 0.7,0.3 0.2,0 0.5,-0.1 0.7,-0.3 0.4,-0.4 0.4,-1 0,-1.4 l -0.4,-0.4 z" /><path
               inkscape:connector-curvature="0"
               id="path3415"
               d="m 22.7,28.9 -0.4,0.4 c -0.4,0.4 -0.4,1 0,1.4 0.2,0.2 0.5,0.3 0.7,0.3 0.2,0 0.5,-0.1 0.7,-0.3 l 0.4,-0.4 c -0.5,-0.4 -1,-0.9 -1.4,-1.4 z" /><path
               inkscape:connector-curvature="0"
               id="path3417"
               d="m 37.5,23 -0.6,0 c 0,0.3 0.1,0.7 0.1,1 0,0.3 0,0.7 -0.1,1 l 0.6,0 c 0.6,0 1,-0.4 1,-1 0,-0.6 -0.4,-1 -1,-1 z" /><path
               inkscape:connector-curvature="0"
               id="path3419"
               d="m 29,32 c -0.3,0 -0.7,0 -1,-0.1 l 0,0.6 c 0,0.6 0.4,1 1,1 0.6,0 1,-0.4 1,-1 l 0,-0.6 C 29.7,32 29.3,32 29,32 Z" /></g><circle
             r="29.625"
             cy="87.5"
             cx="131.5"
             id="path3473"
             style="fill:#a0aaaa;fill-opacity:1;fill-rule:evenodd;stroke:none;stroke-width:1px;stroke-linecap:butt;stroke-linejoin:miter;stroke-opacity:1" /></g><rect
           style="fill:#0064c8;fill-opacity:1;stroke:none;stroke-width:1;stroke-linejoin:round;stroke-miterlimit:4;stroke-dasharray:6, 1;stroke-dashoffset:0;stroke-opacity:1"
           id="rect4288"
           width="50.375"
           height="0.875"
           x="106.3125"
           y="92.75" /><g
           id="g3467"
           transform="translate(217.61673,-7.7027268)"><g
             id="g4441"
             style="fill:#464646;fill-opacity:1"><path
               id="path3361-6"
               d="m -105.92923,98.090227 c -1.5,0 -2.7,-1.2 -2.7,-2.7 0,-1.5 1.2,-2.7 2.7,-2.7 1.5,0 2.7,1.2 2.7,2.7 0,1.5 -1.2,2.7 -2.7,2.7 z"
               inkscape:connector-curvature="0"
               style="fill:#464646;fill-opacity:1" /><path
               id="path3361-6-9"
               d="m -97.904228,98.090228 c -1.5,0 -2.700002,-1.2 -2.700002,-2.700003 0,-1.5 1.200002,-2.7 2.700002,-2.7 1.5,0 2.7,1.2 2.7,2.7 0,1.500003 -1.2,2.700003 -2.7,2.700003 z"
               inkscape:connector-curvature="0"
               style="fill:#464646;fill-opacity:1" /><path
               id="path3361-6-9-5"
               d="m -89.879227,98.090228 c -1.5,0 -2.7,-1.2 -2.7,-2.700003 0,-1.5 1.2,-2.7 2.7,-2.7 1.5,0 2.7,1.2 2.7,2.7 0,1.500003 -1.2,2.700003 -2.7,2.700003 z"
               inkscape:connector-curvature="0"
               style="fill:#464646;fill-opacity:1" /><path
               id="path3361-6-9-5-2"
               d="m -81.854233,98.090228 c -1.5,0 -2.7,-1.2 -2.7,-2.700003 0,-1.5 1.2,-2.7 2.7,-2.7 1.5,0 2.7,1.2 2.7,2.7 0,1.500003 -1.2,2.700003 -2.7,2.700003 z"
               inkscape:connector-curvature="0"
               style="fill:#464646;fill-opacity:1" /><path
               id="path3361-6-9-5-2-2"
               d="m -73.829224,98.090228 c -1.5,0 -2.7,-1.2 -2.7,-2.700003 0,-1.5 1.2,-2.7 2.7,-2.7 1.5,0 2.7,1.2 2.7,2.7 0,1.500003 -1.2,2.700003 -2.7,2.700003 z"
               inkscape:connector-curvature="0"
               style="fill:#464646;fill-opacity:1" /><path
               id="path3361-6-9-5-2-2-2"
               d="m -65.80423,98.090228 c -1.5,0 -2.7,-1.2 -2.7,-2.700003 0,-1.5 1.2,-2.7 2.7,-2.7 1.5,0 2.7,1.2 2.7,2.7 0,1.500003 -1.2,2.700003 -2.7,2.700003 z"
               inkscape:connector-curvature="0"
               style="fill:#464646;fill-opacity:1" /></g></g></g></g></g></svg>